<?xml version="1.0" encoding="UTF-8"?>
<svg id="_イヤー_1" data-name="レイヤー 1" xmlns="http://www.w3.org/2000/svg" viewBox="0 0 117.81 100.01">
  <defs>
    <style>
      .cls-1 {
        fill: #000;
      }
    </style>
  </defs>
  <path class="cls-1" d="M11.99,52.82c5.91,4.41,24.81,6.82,35.62,7.24,.51,.38,1.03,.75,1.58,1.11,6.5,4.21,16.37,6.82,29.18,6.32,9.79,0,23.55-2.38,30.08-7.25,1.45,1.34,2.52,3.22,3.22,5.65h3.29v-18.66h-3.29c-3.67,11.99-20.41,18.08-34.24,18.26-8.43-.34-14.6-2.16-18.87-5.46-.15-.12-.28-.25-.42-.37,5.15-.66,9.5-2.05,13.01-4.2,5.09-3.11,7.63-7.14,7.63-12.1,0-3.14-1.05-5.9-3.16-8.3-2.11-2.4-4.9-4.27-8.39-5.62-2.05-.8-4.85-1.75-8.36-2.84,4.24-3.41,9.65-5.13,16.57-5.13,6.06,0,11.5,1.21,16.33,3.63,4.83,2.42,8.02,6.73,9.59,12.94h2.24l-.63-17.45h-2.3c-.31,2.06-1.21,4.05-2.69,5.98-2.12-1.72-5.34-3.29-9.64-4.7-4.3-1.41-9.1-2.12-14.4-2.12-6.41,0-12.1,.97-17.46,2.92-1.53,.56-2.96,1.21-4.3,1.93-.56-.16-1.12-.33-1.71-.5-8.04-2.33-13.59-4.43-16.65-6.31-3.11-1.85-4.66-4.12-4.66-6.8,0-2.22,1.24-4.27,3.72-6.13,2.48-1.87,6.37-2.8,11.68-2.8s10.47,1.27,14.71,3.79c4.23,2.53,7.18,6,8.85,10.4h2.9V1.07h-2.9c-.26,1.83-1.41,3.52-3.42,5.09-3.51-2.51-6.93-4.16-10.26-4.96-3.33-.8-6.89-1.2-10.66-1.2-6.76,0-12.34,1.37-16.75,4.13-4.41,2.75-6.61,6.19-6.61,10.33,0,2.71,1.02,5.26,3.06,7.66,2.04,2.39,4.88,4.34,8.52,5.84,2.84,1.17,6.76,2.49,11.73,3.96-2.85,3.93-4.29,8.11-4.29,12.55,0,5.26,1.88,9.73,5.62,13.43-13.94-1.11-32.94-7.13-36.29-18.07h-3.29v18.65h3.29c.7-2.42,1.78-4.3,3.22-5.64Zm57.32-6.05c0,2.88-1.72,5.49-5.16,7.82-2.16,1.46-4.88,2.46-8.15,3-3.04-3.46-4.59-7.93-4.59-13.44,0-3.59,.54-6.77,1.6-9.55,5.45,1.7,9.39,3.31,11.76,4.83,3.03,1.97,4.54,4.42,4.54,7.33Z"/>
  <path class="cls-1" d="M6.87,80.23c-.21-.42-.41-.75-.59-.99-.54-.73-.83-1.31-.86-1.74-.04-.43,.05-.81,.25-1.12,.24-.37,.56-.61,.95-.72,.39-.11,.77-.03,1.16,.21,.4,.26,.63,.69,.67,1.27,.02,.34-.09,.89-.34,1.65l.06,.06,.4,.31,.07,.02c.08-.09,.15-.18,.21-.27,.18-.28,.41-.69,.69-1.22,.19-.36,.32-.63,.38-.83-.26-.4-.49-.69-.69-.88-.31-.32-.57-.54-.75-.67-.87-.57-1.7-.72-2.5-.47-.8,.25-1.45,.77-1.96,1.55-.25,.39-.43,.84-.55,1.36-.11,.52-.11,1,0,1.43,.12,.43,.43,1.04,.94,1.83,.51,.79,.79,1.33,.83,1.63,.07,.48-.01,.91-.25,1.27-.19,.29-.45,.52-.77,.68-.32,.16-.65,.21-.97,.16-.33-.05-.59-.15-.81-.28-.24-.15-.43-.34-.57-.57-.14-.22-.24-.46-.29-.71-.05-.25-.05-.54,0-.87,.02-.15,.11-.56,.28-1.22l-.56-.34-.18,.28c-.09,.13-.23,.36-.43,.68-.38,.63-.59,.97-.62,1.03l-.05,.08c-.03,.08-.04,.14-.04,.17,.01,.09,.1,.23,.25,.42l.54,.72c.32,.34,.61,.6,.89,.78,.41,.27,.78,.45,1.11,.53,.32,.08,.67,.11,1.05,.07,.38-.04,.67-.09,.88-.16,.3-.1,.57-.25,.79-.43,.43-.36,.79-.77,1.09-1.22,.28-.42,.46-.8,.55-1.14,.09-.34,.12-.74,.09-1.19-.03-.34-.15-.72-.36-1.14Z"/>
  <path class="cls-1" d="M18.65,82.89c.03-.51-.03-.94-.16-1.29-.13-.35-.38-.67-.75-.97-.24-.2-.62-.43-1.16-.67-.08-.04-.28-.12-.61-.24-.57-.22-.98-.39-1.24-.51l-.25-.12-.68-.31-1.46-.83-.28,.61c.09,.1,.29,.27,.61,.51,.15,.12,.24,.24,.27,.36,.03,.12,.03,.26-.02,.43-.03,.1-.31,.76-.84,1.97l-1.11,2.55-1.02,2.24c-.14,.3-.24,.53-.31,.69-.03,.07-.06,.13-.08,.18-.06,.13-.15,.26-.26,.39-.26,.05-.55,.06-.86,.04l-.46-.02c-.06,.1-.09,.17-.12,.22-.03,.07-.08,.19-.13,.35,.18,.07,.31,.12,.4,.14,.51,.14,1.03,.33,1.56,.58,.46,.22,.87,.43,1.21,.64,.35,.21,.58,.35,.71,.41,.06,.02,.14,.05,.26,.08,.09-.13,.15-.24,.19-.32,.03-.07,.07-.18,.12-.31l-1.17-.79c.11-.31,.21-.55,.3-.72l.59-1.23,.48-1.04,.31-.65c.06-.14,.11-.25,.14-.33l.14-.34,.16-.31,1.7-3.76c.05-.06,.1-.11,.17-.16,.19-.05,.44,0,.76,.15,.34,.16,.6,.38,.8,.66,.14,.21,.21,.51,.19,.91-.01,.4-.14,.86-.39,1.37-.34,.73-.75,1.17-1.22,1.34-.36,.14-.72,.12-1.08-.05-.06-.03-.14-.06-.22-.11-.08-.05-.17-.1-.26-.15-.12,.27-.22,.49-.27,.65,.13,.24,.28,.44,.47,.62,.19,.18,.4,.32,.65,.44,.71,.33,1.42,.32,2.16-.04,.73-.36,1.31-1,1.74-1.92,.17-.37,.27-.81,.3-1.32Z"/>
  <path class="cls-1" d="M28.13,84.35l-1.21-.37c-.8-.26-1.7-.52-2.71-.79-.67-.18-1.09-.3-1.25-.35-.46-.15-.86-.31-1.19-.49-.18-.09-.39-.19-.64-.29l-.25,.65c.11,.05,.2,.1,.28,.13,.23,.09,.46,.21,.7,.35,.08,.05,.14,.09,.18,.11,.09,.05,.14,.11,.16,.18-.02,.09-.03,.14-.04,.17l-.27,1.05-.31,.94-.39,1.34-.31,.94-1,3.15-.09,.25c-.07,.23-.12,.39-.15,.49-.08,.24-.17,.44-.27,.58-.21,.06-.56,.04-1.05-.04-.26-.05-.44-.07-.54-.07l-.19,.58,.82,.23,.28,.09c.8,.2,1.46,.38,2,.55,1.07,.35,1.98,.66,2.73,.95,1.06,.4,1.72,.65,1.96,.73,.17,.05,.4,.12,.69,.2l.43-.91,.75-1.5,.12-.24c.04-.09,.09-.2,.15-.34-.1-.03-.17-.06-.22-.08-.09-.03-.21-.06-.35-.09-.41,.61-.84,1.05-1.26,1.32-.32,.21-.64,.32-.97,.3-.47-.02-1.01-.13-1.63-.33-.93-.3-1.47-.54-1.62-.71-.09-.12-.11-.28-.04-.49l.59-1.8c.12-.44,.29-.99,.5-1.66,.02-.04,.04-.14,.09-.28,.35,.06,.87,.21,1.54,.42,.57,.18,.89,.31,.97,.38,.11,.09,.18,.19,.2,.31,.03,.15,0,.5-.07,1.05-.04,.29-.06,.49-.08,.58l.47,.15,.06-.18c.05-.16,.12-.41,.22-.74,.09-.34,.16-.58,.21-.73,.03-.09,.08-.22,.14-.39,.06-.17,.18-.54,.37-1.12,.08-.25,.2-.63,.33-1.13l-.38-.13-.09-.02c-.34,.66-.55,1.04-.63,1.15-.12,.15-.23,.25-.33,.29-.1,.04-.33,.03-.68-.04-.35-.07-.93-.23-1.72-.49-.08-.03-.17-.07-.28-.12l.34-1.05,.44-1.4c.31-.96,.49-1.5,.55-1.63,.43,.12,.92,.26,1.47,.44,.47,.15,.91,.32,1.31,.5,.22,.09,.35,.15,.39,.17,.17,.06,.3,.13,.4,.2,.1,.32,.16,.62,.18,.9l.08,.68c0,.24,0,.42,0,.54,.11,.05,.18,.08,.22,.09l.28,.07c.03-.07,.04-.12,.06-.15l.1-.34,.55-1.72c.06-.19,.07-.35,.02-.49-.5-.25-.89-.43-1.16-.51Z"/>
  <path class="cls-1" d="M38.54,86.62c-.49-.17-1.01-.32-1.58-.43-1.4-.29-2.65,.03-3.78,.96-1.13,.93-1.86,2.24-2.21,3.94-.14,.7-.2,1.36-.18,1.95,.03,.6,.14,1.16,.34,1.7,.2,.54,.52,1.07,.95,1.59,.3,.36,.68,.66,1.16,.89,.47,.23,.99,.41,1.55,.52,.74,.15,1.37,.21,1.9,.18,.53-.03,.97-.15,1.3-.36l.18-.38,.12-.25c.22-.61,.35-.96,.38-1.05,.09-.22,.16-.44,.23-.66-.28-.05-.5-.07-.68-.07-.59,.69-1.16,1.18-1.71,1.47-.55,.3-1.07,.39-1.58,.29-.46-.09-.86-.31-1.21-.65-.27-.25-.47-.56-.6-.92-.16-.48-.26-1.06-.29-1.77-.02-.43,.07-1.13,.28-2.1,.34-1.68,.9-2.92,1.69-3.74,.58-.6,1.22-.83,1.93-.69,.58,.12,1.06,.4,1.46,.83,.4,.44,.73,1.09,1.01,1.96l.62,.13c.08-.41,.12-.81,.11-1.19-.02-.84-.04-1.36-.07-1.54-.4-.23-.85-.43-1.34-.61Z"/>
  <path class="cls-1" d="M45.16,87.79c-.06,0-.21-.03-.46-.07l-1.97-.35-.08,.77c.06,.02,.14,.04,.24,.06,.42,.08,.72,.19,.9,.32,.01,.13,.02,.22,.02,.28l-.03,.37-.09,.99-.08,.47-.13,1.16s-.1,.62-.27,1.77l-.05,.47-.26,1.98-.12,1.03c-.04,.32-.11,.56-.22,.73-.16,.08-.4,.15-.71,.2-.22,.04-.38,.07-.47,.09l-.08,.63c.09,0,.29,.01,.6,.01,.48,0,.84,.01,1.08,.04l1.23,.17c.54,.14,.84,.22,.91,.24,.09,.03,.15,.04,.18,.05,.02,0,.11,0,.26,.01,.03,0,.08,0,.14,0,.02-.13,.04-.23,.05-.29,.01-.12,.02-.26,.02-.44-.23-.07-.37-.11-.41-.12-.23-.06-.48-.14-.75-.25-.02-.09-.02-.16-.02-.21l.06-.33,.19-1.74,.18-1.16,.28-2.3c.06-.52,.16-1.28,.3-2.26,0-.16,.02-.36,.05-.61,.04-.28,.08-.5,.12-.65,.16-.06,.37-.1,.61-.15,.25-.04,.47-.09,.67-.15,.03-.15,.05-.28,.06-.38,0-.08,.02-.17,.03-.28-.09,0-.31-.01-.65-.03-.61-.03-1.05-.06-1.32-.09Z"/>
  <path class="cls-1" d="M57.4,99.16c-.19-.04-.32-.1-.4-.19-.05-.04-.11-.19-.19-.44-.15-.46-.26-.84-.33-1.14-.13-.55-.24-.97-.32-1.25-.14-.46-.3-1.06-.48-1.79-.18-.73-.39-1.48-.63-2.26l-1.04-3.66-.05-.16-.32-.02c-.14,0-.29-.01-.44-.02l-1.92,5.35-1.64,4.55c-.13,.26-.23,.43-.31,.49-.08,.07-.3,.13-.67,.2-.23,.04-.38,.08-.47,.11l-.04,.59h.13c.31,.02,.64,0,.99-.05l.29-.05c1.09,.15,1.78,.24,2.06,.25,.01-.07,.02-.14,.03-.2,0-.08,0-.23,.01-.44-.29-.06-.45-.11-.49-.12-.3-.06-.5-.15-.6-.27-.06-.07-.09-.17-.08-.33,0-.11,.06-.32,.16-.62,.37-1.08,.6-1.75,.72-2.03l2.67,.14,.46,1.74,.24,.87c.02,.08,.03,.16,.02,.24,0,.07-.03,.14-.08,.2-.04,.04-.18,.09-.41,.15l-.79,.17c-.02,.18-.04,.38-.05,.58h.34l1.19-.02c.16,0,.43,0,.8,.02,.33,.02,.7,.05,1.12,.11,.41,.06,.79,.1,1.14,.12,0-.09,.01-.15,.02-.19,0-.09,0-.24-.01-.43-.22-.12-.42-.19-.6-.23Zm-3.81-4.26c-.2,0-.84-.05-1.93-.12l1.18-3.33c.12,.37,.28,.9,.47,1.61,.19,.7,.34,1.32,.46,1.84h-.18Z"/>
  <path class="cls-1" d="M68.7,96.46c-.14-.02-.27-.02-.38-.02h-.22c-.11,.48-.21,.83-.31,1.03-.09,.21-.21,.4-.37,.58-.09,.16-.29,.33-.61,.51-.42,.23-1.01,.36-1.76,.39h-.44l-.41,.03h-.66c-.05-.06-.08-.17-.08-.35l-.12-4.15c0-.23-.01-.42-.01-.57,0-.39,0-.74-.02-1.04,0-.26-.03-.57-.05-.92-.02-.22-.03-.38-.03-.47,0-.08,0-.15,0-.23,0-.29,0-.45,0-.48v-1.05s.01-.06,.03-.11c.05-.04,.09-.06,.12-.07l.86-.28c.18-.04,.28-.08,.31-.12,.05-.07,.07-.17,.07-.31,0-.17-.03-.28-.07-.34-.03-.04-.08-.07-.15-.06-.03,0-.11,.01-.26,.03-.5,.07-.92,.11-1.24,.12h-.74l-1,.05c-.7-.02-1.11-.03-1.22-.03-.05,0-.09,.02-.13,.05,0,.09,0,.16,0,.21,0,.08,.01,.2,.03,.35,.07,.07,.19,.12,.35,.17,.09,.02,.2,.06,.32,.11,.16,.07,.25,.11,.27,.12,.24,.08,.38,.16,.41,.22,.03,.06,.08,.39,.13,1.01v.12l.03,.88,.04,1.96,.04,.91,.02,.86,.03,.73v1.14l.05,1.12c0,.09,0,.21-.03,.35-.06,.07-.18,.11-.36,.12-.05,0-.2,.03-.46,.09-.26,.06-.46,.11-.61,.17-.03,.12-.04,.29-.03,.54,0,.05,0,.1,.02,.17,.06,0,.11,0,.13,0h.11c.48-.07,.99-.12,1.54-.16l1.43-.1c.76-.03,1.55-.04,2.35-.03,.8,0,1.24,.01,1.34,.02,.51,.03,.79,.04,.83,.04l.36-.02h.26s.09-.02,.2-.05c.03-.09,.05-.35,.07-.77,.05-1.05,.07-1.79,.05-2.2v-.25Z"/>
  <path class="cls-1" d="M84.85,94.38c-.28,.05-.49,.11-.66,.18-.3,.85-.65,1.52-1.06,1.99-.41,.47-.87,.75-1.37,.84-.46,.08-.92,.02-1.36-.17-.34-.14-.64-.35-.89-.64-.32-.38-.63-.9-.91-1.54-.17-.4-.34-1.09-.5-2.06-.28-1.69-.21-3.05,.23-4.1,.32-.77,.84-1.21,1.55-1.34,.58-.1,1.13-.01,1.66,.25,.53,.26,1.08,.75,1.65,1.46l.63-.1c-.07-.41-.18-.8-.33-1.15-.32-.78-.52-1.25-.61-1.42-.46-.07-.95-.1-1.47-.09-.51,.01-1.06,.07-1.63,.16-1.4,.24-2.46,.99-3.18,2.26-.72,1.27-.93,2.76-.65,4.47,.12,.71,.3,1.34,.54,1.88,.24,.55,.55,1.04,.93,1.47,.38,.43,.87,.81,1.46,1.14,.41,.23,.88,.36,1.4,.41,.53,.05,1.07,.02,1.64-.07,.74-.12,1.36-.3,1.84-.52,.49-.22,.85-.49,1.08-.81l.03-.42,.02-.27c-.02-.65-.02-1.03-.02-1.12,0-.24,0-.47-.03-.69Z"/>
  <path class="cls-1" d="M95.89,91.64l-.06-.24c-.14,.02-.27,.04-.37,.07l-.22,.06c0,.49-.02,.84-.06,1.06-.04,.22-.12,.44-.23,.65-.05,.18-.21,.4-.48,.64-.36,.32-.9,.58-1.63,.78l-.42,.11-.4,.12-.65,.14c-.06-.04-.11-.14-.16-.31l-1.06-4.02c-.06-.22-.11-.41-.14-.55-.09-.38-.17-.72-.25-1.01-.07-.25-.16-.55-.26-.88-.07-.21-.11-.36-.14-.45-.02-.07-.04-.15-.05-.22-.07-.28-.11-.44-.11-.47l-.03-.09-.04-.15-.12-.54-.06-.24s0-.07,.01-.11c.04-.05,.08-.08,.1-.1l.77-.47c.16-.07,.25-.13,.27-.18,.03-.08,.03-.18,0-.31-.04-.16-.09-.27-.14-.32-.04-.04-.1-.05-.16-.03-.02,0-.1,.04-.24,.09-.47,.18-.87,.31-1.18,.4l-.72,.18-.97,.27c-.69,.14-1.08,.22-1.19,.25-.05,.01-.08,.04-.12,.07,.02,.09,.04,.16,.05,.21,.02,.08,.06,.19,.11,.33,.08,.05,.21,.08,.38,.09,.1,0,.21,.01,.34,.04,.17,.03,.27,.05,.29,.06,.26,.03,.4,.07,.45,.12,.05,.05,.17,.37,.36,.95l.03,.12,.23,.86,.49,1.89,.25,.88,.22,.83,.19,.7,.26,1.11,.31,1.08c.03,.09,.04,.21,.05,.35-.04,.08-.15,.15-.32,.2-.04,.01-.19,.08-.43,.19-.24,.12-.43,.22-.55,.31,0,.11,.03,.29,.09,.53,.01,.04,.03,.1,.06,.16,.06-.01,.1-.02,.13-.03l.1-.03c.45-.17,.94-.34,1.47-.5l1.36-.43c.74-.2,1.5-.39,2.28-.57,.78-.18,1.21-.27,1.31-.29,.51-.09,.78-.14,.82-.15l.35-.11,.25-.07s.09-.04,.19-.09c0-.1-.03-.35-.11-.77-.2-1.03-.35-1.75-.46-2.16Z"/>
  <path class="cls-1" d="M105.64,85.72l-.74-1.62c-.17-.39-.34-.78-.52-1.17-.05-.11-.1-.22-.14-.33-.05-.11-.11-.25-.19-.44-.14-.33-.24-.57-.31-.7-.09-.18-.15-.32-.19-.41-.05-.14-.07-.25-.03-.34,.02-.04,.16-.15,.43-.32,.17-.08,.33-.18,.46-.3-.02-.09-.04-.17-.06-.23-.03-.07-.09-.19-.19-.36l-.12,.03c-.36,.2-.74,.39-1.16,.56l-1.27,.43-.51,.21,.24,.63h.09l.6-.28c.17-.07,.36-.05,.57,.06,.13,.08,.26,.27,.41,.58l.2,.42c.78,1.59,1.44,3.04,1.97,4.35,.31,.75,.49,1.32,.55,1.71,.04,.28,.05,.61,.02,.97-.02,.17-.08,.38-.2,.63-.12,.25-.27,.45-.45,.61-.31,.28-.66,.51-1.08,.68-.35,.14-.75,.17-1.21,.09-.32-.06-.6-.2-.86-.43-.35-.31-.65-.76-.91-1.34l-.92-2-.55-1.41-.3-.63-.3-.77-.13-.29c-.05-.11-.11-.25-.18-.42-.23-.57-.34-.9-.31-1,.03-.15,.17-.27,.41-.38,.26-.11,.5-.23,.73-.37l-.02-.06-.21-.47-.03-.1c-.09,.04-.26,.12-.52,.23-.25,.11-.54,.24-.87,.4-.32,.15-.66,.3-1.01,.44-.1,.04-.44,.16-1.03,.35-.24,.08-.48,.16-.69,.25-.08,.03-.16,.07-.24,.11l.28,.63c.08-.01,.17-.04,.28-.09,.51-.18,.84-.21,1-.08,.12,.09,.36,.59,.74,1.5l1.58,3.86c.31,.75,.57,1.31,.8,1.68,.33,.55,.69,.95,1.09,1.22,.39,.26,.87,.41,1.44,.44,.57,.03,1.19-.1,1.86-.37,.59-.24,1.07-.53,1.44-.87,.38-.34,.66-.71,.84-1.1,.18-.39,.29-.78,.31-1.17,.02-.26-.02-.59-.12-.99-.09-.4-.36-1.15-.81-2.25Z"/>
  <path class="cls-1" d="M117.71,82.01c-.12-.42-.28-.79-.48-1.12-.33-.55-.8-.96-1.39-1.22-.59-.26-1.24-.29-1.94-.09,.26-.47,.42-.8,.47-.96,.1-.34,.12-.66,.08-.97-.04-.31-.15-.61-.34-.92-.16-.28-.36-.51-.58-.71-.22-.2-.46-.35-.73-.46-.27-.1-.55-.16-.82-.16-.28,0-.5,.01-.65,.05-.43,.1-.79,.24-1.09,.43l-.38,.23c-.17,.1-.28,.16-.32,.18-.05,.03-.09,.06-.14,.1l-.23,.15-1.91,1.27-1.32,.85,.34,.52c.35-.14,.56-.23,.64-.27,.18-.1,.32-.14,.42-.12,.04,0,.07,.02,.11,.04,.08,.07,.25,.29,.48,.66,.87,1.38,1.41,2.23,1.61,2.55l1.94,3.17c.33,.54,.57,.96,.71,1.26,.05,.11,.08,.25,.09,.39-.11,.18-.29,.38-.52,.58-.12,.11-.22,.21-.29,.29l.35,.61c.74-.5,1.2-.81,1.36-.92,.57-.41,1.06-.75,1.49-1.01l1.03-.59c.46-.28,.78-.51,.97-.69,.39-.37,.66-.71,.82-1.02,.16-.31,.26-.68,.3-1.13,.03-.33,0-.66-.09-.97Zm-6.55-1.04c-.14-.22-.24-.38-.3-.49l-.38-.63c-.47-.76-.84-1.35-1.11-1.76-.14-.21-.24-.37-.31-.49,.25-.23,.45-.39,.62-.49,.58-.36,1.12-.46,1.61-.32,.48,.14,.87,.45,1.16,.93,.41,.68,.55,1.25,.41,1.71-.14,.46-.51,.88-1.1,1.24-.21,.13-.41,.23-.59,.3Zm4.77,3.55c-.18,.35-.5,.66-.96,.93-.22,.13-.5,.21-.85,.24-.1-.09-.18-.17-.23-.25l-1.06-1.71-.67-1.11-.56-.92c.07-.1,.23-.23,.48-.38,.57-.34,1.03-.53,1.4-.57,.37-.04,.77,.09,1.21,.36,.32,.2,.63,.54,.92,1.02,.28,.46,.45,.89,.51,1.28,.05,.39-.01,.76-.19,1.1Z"/>
</svg>